<svg xmlns="http://www.w3.org/2000/svg" viewBox="0 0 900 520" width="900" height="520" role="img" aria-label="Step 3: The main board, components up">
<title>Step 3: The main board, components up</title>
<rect width="900" height="520" fill="#08080a"/>
<path d="M 186.0 316.1 L 456.1 472.0 L 456.1 470.2 L 186.0 314.3 Z" fill="#44444b" stroke="#b0b0c3" stroke-width="1.0" stroke-linecap="round" stroke-linejoin="round"/>
<path d="M 698.8 331.8 L 456.1 472.0 L 456.1 470.2 L 698.8 330.1 Z" fill="#5a5a64" stroke="#b0b0c3" stroke-width="1.0" stroke-linecap="round" stroke-linejoin="round"/>
<path d="M 428.8 174.2 L 698.8 330.1 L 456.1 470.2 L 186.0 314.3 Z" fill="#6e6e7a" stroke="#b0b0c3" stroke-width="1.0" stroke-linecap="round" stroke-linejoin="round"/>
<path d="M 427.2 176.8 L 697.3 332.7 L 697.3 248.6 L 427.2 92.7 Z" fill="#44444b" stroke="#b0b0c3" stroke-width="1.0" stroke-linecap="round" stroke-linejoin="round"/>
<path d="M 698.8 331.8 L 697.3 332.7 L 697.3 248.6 L 698.8 247.7 Z" fill="#5a5a64" stroke="#b0b0c3" stroke-width="1.0" stroke-linecap="round" stroke-linejoin="round"/>
<path d="M 428.8 91.8 L 698.8 247.7 L 697.3 248.6 L 427.2 92.7 Z" fill="#6e6e7a" stroke="#b0b0c3" stroke-width="1.0" stroke-linecap="round" stroke-linejoin="round"/>
<path d="M 186.0 316.1 L 187.5 316.9 L 187.5 232.8 L 186.0 232.0 Z" fill="#44444b" stroke="#b0b0c3" stroke-width="1.0" stroke-linecap="round" stroke-linejoin="round"/>
<path d="M 430.3 176.8 L 187.5 316.9 L 187.5 232.8 L 430.3 92.7 Z" fill="#5a5a64" stroke="#b0b0c3" stroke-width="1.0" stroke-linecap="round" stroke-linejoin="round"/>
<path d="M 428.8 91.8 L 430.3 92.7 L 187.5 232.8 L 186.0 232.0 Z" fill="#6e6e7a" stroke="#b0b0c3" stroke-width="1.0" stroke-linecap="round" stroke-linejoin="round"/>
<path d="M 454.6 471.1 L 456.1 472.0 L 456.1 387.9 L 454.6 387.0 Z" fill="#44444b" stroke="#b0b0c3" stroke-width="1.0" stroke-linecap="round" stroke-linejoin="round"/>
<path d="M 698.8 331.8 L 456.1 472.0 L 456.1 387.9 L 698.8 247.7 Z" fill="#5a5a64" stroke="#b0b0c3" stroke-width="1.0" stroke-linecap="round" stroke-linejoin="round"/>
<path d="M 697.3 246.9 L 698.8 247.7 L 456.1 387.9 L 454.6 387.0 Z" fill="#6e6e7a" stroke="#b0b0c3" stroke-width="1.0" stroke-linecap="round" stroke-linejoin="round"/>
<path d="M 396.9 239.0 L 396.9 225.0 L 412.1 225.0 L 412.1 239.0 Z" fill="#63636b" stroke="#e3e3f4" stroke-width="0.8" stroke-linecap="round" stroke-linejoin="round"/>
<ellipse cx="404.5" cy="225.0" rx="7.6" ry="4.4" fill="#8e8e99" stroke="#e3e3f4" stroke-width="0.8"/>
<path d="M 533.4 317.8 L 533.4 303.8 L 548.6 303.8 L 548.6 317.8 Z" fill="#63636b" stroke="#e3e3f4" stroke-width="0.8" stroke-linecap="round" stroke-linejoin="round"/>
<ellipse cx="541.0" cy="303.8" rx="7.6" ry="4.4" fill="#8e8e99" stroke="#e3e3f4" stroke-width="0.8"/>
<path d="M 305.9 291.5 L 305.9 277.5 L 321.0 277.5 L 321.0 291.5 Z" fill="#63636b" stroke="#e3e3f4" stroke-width="0.8" stroke-linecap="round" stroke-linejoin="round"/>
<ellipse cx="313.5" cy="277.5" rx="7.6" ry="4.4" fill="#8e8e99" stroke="#e3e3f4" stroke-width="0.8"/>
<path d="M 442.4 370.4 L 442.4 356.4 L 457.6 356.4 L 457.6 370.4 Z" fill="#63636b" stroke="#e3e3f4" stroke-width="0.8" stroke-linecap="round" stroke-linejoin="round"/>
<ellipse cx="450.0" cy="356.4" rx="7.6" ry="4.4" fill="#8e8e99" stroke="#e3e3f4" stroke-width="0.8"/>
<path d="M 404.5 213.4 L 556.2 301.0 L 450.0 362.3 L 298.3 274.7 Z" fill="none" stroke="#7fcf8f" stroke-width="1.1" stroke-linecap="round" stroke-linejoin="round" stroke-dasharray="4 3"/>
<path d="M 556.2 303.8 L 450.0 365.1 L 450.0 362.3 L 556.2 301.0 Z" fill="none" stroke="#7fcf8f" stroke-width="1.1" stroke-linecap="round" stroke-linejoin="round" stroke-dasharray="4 3"/>
<path d="M 298.3 277.5 L 450.0 365.1 L 450.0 362.3 L 298.3 274.7 Z" fill="none" stroke="#7fcf8f" stroke-width="1.1" stroke-linecap="round" stroke-linejoin="round" stroke-dasharray="4 3"/>
<path d="M 427.2 228.3 L 427.2 282.6" fill="none" stroke="#7fcf8f" stroke-width="2" stroke-linecap="round" stroke-linejoin="round" stroke-dasharray="5 4"/>
<path d="M 422.2 273.6 L 427.2 282.6 L 432.2 273.6" fill="none" stroke="#7fcf8f" stroke-width="2" stroke-linecap="round" stroke-linejoin="round"/>
<text x="435.2" y="226.3" font-size="8" fill="#7fcf8f" text-anchor="start" font-family="ui-monospace, 'SF Mono', 'Cascadia Mono', Menlo, Consolas, 'DejaVu Sans Mono', monospace">board, components up</text>
</svg>
