<svg xmlns="http://www.w3.org/2000/svg" viewBox="0 0 1180 560" width="1180" height="560" role="img" aria-label="WHAT YOU ARE AIMING AT">
<title>WHAT YOU ARE AIMING AT</title>
<rect width="1180" height="560" fill="#08080a"/>
<text x="28" y="38" font-size="15" fill="#ffd978" font-family="ui-monospace, 'SF Mono', 'Cascadia Mono', Menlo, Consolas, 'DejaVu Sans Mono', monospace" font-weight="700" letter-spacing="0.14em">WHAT YOU ARE AIMING AT</text>
<text x="28" y="58" font-size="11" fill="#8a8578" font-family="system-ui, -apple-system, 'Segoe UI', Roboto, Helvetica, Arial, sans-serif">The deck in the slot, lit, playing. Drawn to the dimensions above.</text>
<rect x="150.0" y="120.0" width="880.0" height="300.0" rx="10" fill="#0d0d11" stroke="#23232b" stroke-width="1"/>
<text x="160.0" y="112.0" font-size="9.5" fill="#8a8578" text-anchor="start" font-family="system-ui, -apple-system, 'Segoe UI', Roboto, Helvetica, Arial, sans-serif">dashboard aperture</text>
<rect x="354.1" y="201.3" width="471.7" height="137.4" rx="5" fill="#141419" stroke="#2e2e38" stroke-width="2"/>
<rect x="357.1" y="204.3" width="465.7" height="131.4" rx="4" fill="#0e0e12"/>
<rect x="374.1" y="223.3" width="340.8" height="91.2" rx="3" fill="#000" stroke="#26262f" stroke-width="1"/>
<text x="383.1" y="242.9" font-size="10" fill="#ffd978" text-anchor="start" font-family="ui-monospace, 'SF Mono', 'Cascadia Mono', Menlo, Consolas, 'DejaVu Sans Mono', monospace" font-weight="700">NIGHTCALL</text>
<text x="705.9" y="242.9" font-size="9" fill="#f3a52b" text-anchor="end" font-family="ui-monospace, 'SF Mono', 'Cascadia Mono', Menlo, Consolas, 'DejaVu Sans Mono', monospace" opacity="0.75">KAVINSKY</text>
<rect x="380.1" y="285.8" width="21.6" height="19.7" rx="0.5" fill="#f3a52b" opacity="0.9"/>
<rect x="380.1" y="281.8" width="21.6" height="2.0" rx="0.5" fill="#ffd978"/>
<rect x="405.7" y="258.2" width="21.6" height="47.3" rx="0.5" fill="#f3a52b" opacity="0.9"/>
<rect x="405.7" y="254.2" width="21.6" height="2.0" rx="0.5" fill="#ffd978"/>
<rect x="431.3" y="291.0" width="21.6" height="14.6" rx="0.5" fill="#f3a52b" opacity="0.9"/>
<rect x="431.3" y="287.0" width="21.6" height="2.0" rx="0.5" fill="#ffd978"/>
<rect x="456.9" y="299.3" width="21.6" height="6.2" rx="0.5" fill="#f3a52b" opacity="0.9"/>
<rect x="456.9" y="295.3" width="21.6" height="2.0" rx="0.5" fill="#ffd978"/>
<rect x="482.5" y="273.4" width="21.6" height="32.1" rx="0.5" fill="#f3a52b" opacity="0.9"/>
<rect x="482.5" y="269.4" width="21.6" height="2.0" rx="0.5" fill="#ffd978"/>
<rect x="508.1" y="264.4" width="21.6" height="41.1" rx="0.5" fill="#f3a52b" opacity="0.9"/>
<rect x="508.1" y="260.4" width="21.6" height="2.0" rx="0.5" fill="#ffd978"/>
<rect x="533.7" y="297.5" width="21.6" height="8.0" rx="0.5" fill="#f3a52b" opacity="0.9"/>
<rect x="533.7" y="293.5" width="21.6" height="2.0" rx="0.5" fill="#ffd978"/>
<rect x="559.3" y="296.6" width="21.6" height="8.9" rx="0.5" fill="#f3a52b" opacity="0.9"/>
<rect x="559.3" y="292.6" width="21.6" height="2.0" rx="0.5" fill="#ffd978"/>
<rect x="584.9" y="262.5" width="21.6" height="43.0" rx="0.5" fill="#f3a52b" opacity="0.9"/>
<rect x="584.9" y="258.5" width="21.6" height="2.0" rx="0.5" fill="#ffd978"/>
<rect x="610.5" y="276.1" width="21.6" height="29.4" rx="0.5" fill="#f3a52b" opacity="0.9"/>
<rect x="610.5" y="272.1" width="21.6" height="2.0" rx="0.5" fill="#ffd978"/>
<rect x="636.1" y="299.4" width="21.6" height="6.1" rx="0.5" fill="#f3a52b" opacity="0.9"/>
<rect x="636.1" y="295.4" width="21.6" height="2.0" rx="0.5" fill="#ffd978"/>
<rect x="661.7" y="288.9" width="21.6" height="16.6" rx="0.5" fill="#f3a52b" opacity="0.9"/>
<rect x="661.7" y="284.9" width="21.6" height="2.0" rx="0.5" fill="#ffd978"/>
<rect x="687.3" y="258.0" width="21.6" height="47.6" rx="0.5" fill="#f3a52b" opacity="0.9"/>
<rect x="687.3" y="254.0" width="21.6" height="2.0" rx="0.5" fill="#ffd978"/>
<rect x="364.1" y="213.3" width="360.8" height="111.2" rx="8" fill="#f3a52b" opacity="0.06"/>
<circle cx="779.9" cy="270.0" r="24.0" fill="#191920" stroke="#33333d" stroke-width="2"/>
<circle cx="779.9" cy="270.0" r="16.0" fill="#101014" stroke="#2a2a33" stroke-width="1"/>
<line x1="779.9" y1="256.0" x2="779.9" y2="263.0" stroke="#8a8578" stroke-width="2" stroke-linecap="round"/>
<rect x="378.1" y="322.5" width="50.0" height="13.0" rx="2.5" fill="#191920" stroke="#2c2c35" stroke-width="1"/>
<text x="403.1" y="331.5" font-size="7" fill="#8a8578" text-anchor="middle" font-family="ui-monospace, 'SF Mono', 'Cascadia Mono', Menlo, Consolas, 'DejaVu Sans Mono', monospace">SRC</text>
<rect x="436.1" y="322.5" width="50.0" height="13.0" rx="2.5" fill="#191920" stroke="#2c2c35" stroke-width="1"/>
<text x="461.1" y="331.5" font-size="7" fill="#8a8578" text-anchor="middle" font-family="ui-monospace, 'SF Mono', 'Cascadia Mono', Menlo, Consolas, 'DejaVu Sans Mono', monospace">DISP</text>
<rect x="494.1" y="322.5" width="50.0" height="13.0" rx="2.5" fill="#191920" stroke="#2c2c35" stroke-width="1"/>
<text x="519.1" y="331.5" font-size="7" fill="#8a8578" text-anchor="middle" font-family="ui-monospace, 'SF Mono', 'Cascadia Mono', Menlo, Consolas, 'DejaVu Sans Mono', monospace">ART</text>
<line x1="779.9" y1="342.7" x2="779.9" y2="360.7" stroke="#23232b" stroke-width="1" stroke-linecap="round"/>
<text x="779.9" y="374.7" font-size="9.5" fill="#8a8578" text-anchor="middle" font-family="system-ui, -apple-system, 'Segoe UI', Roboto, Helvetica, Arial, sans-serif">volume · push to change screen</text>
<line x1="453.1" y1="335.5" x2="453.1" y2="360.7" stroke="#23232b" stroke-width="1" stroke-linecap="round"/>
<text x="453.1" y="374.7" font-size="9.5" fill="#8a8578" text-anchor="middle" font-family="system-ui, -apple-system, 'Segoe UI', Roboto, Helvetica, Arial, sans-serif">or six, on a resistor ladder</text>
<text x="368.1" y="217.3" font-size="8" fill="#4a4854" text-anchor="start" font-family="ui-monospace, 'SF Mono', 'Cascadia Mono', Menlo, Consolas, 'DejaVu Sans Mono', monospace" letter-spacing="0.14em">DECK·7710</text>
<text x="150.0" y="466.0" font-size="9.5" fill="#8a8578" text-anchor="start" font-family="system-ui, -apple-system, 'Segoe UI', Roboto, Helvetica, Arial, sans-serif">One hue, four brightness levels, and a fifth reserved for clipping. No colour, because the glass has none —</text>
<text x="150.0" y="484.0" font-size="9.5" fill="#8a8578" text-anchor="start" font-family="system-ui, -apple-system, 'Segoe UI', Roboto, Helvetica, Arial, sans-serif">which is the constraint every screen in core/ is designed around rather than fighting.</text>
<text x="150.0" y="516.0" font-size="9.5" fill="#ff4938" text-anchor="start" font-family="system-ui, -apple-system, 'Segoe UI', Roboto, Helvetica, Arial, sans-serif">⚠️  A drawing to the published dimensions, not a photograph. No deck has been built.</text>
</svg>
